<?xml version="1.0" encoding="UTF-8" standalone="no"?>
<!-- Created with Inkscape (http://www.inkscape.org/) -->

<svg
   xmlns:dc="http://purl.org/dc/elements/1.1/"
   xmlns:cc="http://creativecommons.org/ns#"
   xmlns:rdf="http://www.w3.org/1999/02/22-rdf-syntax-ns#"
   xmlns:svg="http://www.w3.org/2000/svg"
   xmlns="http://www.w3.org/2000/svg"
   xmlns:sodipodi="http://sodipodi.sourceforge.net/DTD/sodipodi-0.dtd"
   xmlns:inkscape="http://www.inkscape.org/namespaces/inkscape"
   width="32"
   height="32"
   id="svg3349"
   version="1.1"
   inkscape:version="0.91 r13725"
   viewBox="0 0 32 32"
   sodipodi:docname="camel@2.svg">
  <defs
     id="defs3351" />
  <sodipodi:namedview
     id="base"
     pagecolor="#ffffff"
     bordercolor="#666666"
     borderopacity="1.0"
     inkscape:pageopacity="0.0"
     inkscape:pageshadow="2"
     inkscape:zoom="11.197802"
     inkscape:cx="16"
     inkscape:cy="16"
     inkscape:current-layer="layer1"
     showgrid="true"
     inkscape:grid-bbox="true"
     inkscape:document-units="px"
     inkscape:window-width="1600"
     inkscape:window-height="851"
     inkscape:window-x="0"
     inkscape:window-y="25"
     inkscape:window-maximized="1" />
  <metadata
     id="metadata3354">
    <rdf:RDF>
      <cc:Work
         rdf:about="">
        <dc:format>image/svg+xml</dc:format>
        <dc:type
           rdf:resource="http://purl.org/dc/dcmitype/StillImage" />
        <dc:title></dc:title>
      </cc:Work>
    </rdf:RDF>
  </metadata>
  <g
     id="layer1"
     inkscape:label="Layer 1"
     inkscape:groupmode="layer">
    <path
       d="m 0.31160172,2.4006384 c 0.433853,-0.9198 0.93975198,-0.7863 0.93975198,-0.7863 l 1.590173,-0.037 c 0.289045,0 0.838487,0.075 1.069808,-0.2247 0.419387,-0.5431 1.358853,-0.2996 1.358853,-0.2996 0.75183,-1.236 0.679498,0.8988 0.679498,0.8988 0.623923,0.6412 0.799526,1.1164 0.848512,1.3173 0.0169,0.069 0.01934,0.1566 0.0202,0.1831 0.04569,1.4613 1.331638,5.6153 3.0779346,5.6153 1.9515507,0 3.7441127,-4.849 5.7824627,-4.849 2.626751,0 3.223747,-4.1145 5.622042,-4.1145 2.831861,0 4.69962,5.1249 6.275328,5.1249 0.80454,0 3.286911,2.5853 3.483571,5.6197996 0.124757,0.3698 0.765008,2.3509 0.463644,3.2733 -0.333015,1.0199 0.302797,0.706 0.363384,1.5297 0.06059,0.8238 -0.181762,1.4119 -0.605733,2.2748 -0.384436,0.7824 -0.917122,0.4965 -1.19399,-0.9668 -0.01304,0.06 -0.02592,0.1182 -0.03882,0.1785 -0.491576,2.2844 -0.187924,4.8497 0.01445,5.7672 0.202387,0.9174 0.0288,1.2732 0.0288,1.2732 -1.821496,3.7075 -1.79256,5.3554 -1.966018,6.1795 -0.174455,0.8287 0.231178,1.4979 -0.939752,1.7039 -1.170929,0.2059 -1.691438,-0.3932 -1.228796,-0.7677 0.462643,-0.3746 0.708288,-0.3746 0.997618,-0.8802 0.289189,-0.5056 1.0118,-3.3894 1.0118,-3.3894 0,0 -1.09874,2.2846 -1.069808,2.6028 0.02893,0.3181 0.27472,0.9925 -1.25773,0.6929 -1.532308,-0.2996 0.159132,-0.9738 0.43371,-1.236 0.27472,-0.2621 1.040873,-1.9473 1.44565,-3.7451 0.404633,-1.7976 0.173455,-4.6063 0.158988,-5.2616 -0.01445,-0.6555 0.01448,-1.1236 -0.54944,-1.9288 -0.563766,-0.8053 -0.89621,-3.5015 -0.982866,-4.1755 -0.08666,-0.6742 -1.416862,0.674 -2.602115,1.5728 -1.185251,0.8987 -4.438075,0.6552 -5.348894,0.5057 -0.910676,-0.1499 -1.113065,0.2247 -1.113065,0.2247 -0.01446,1.1796 0.708145,5.7111 0.766011,6.4041 0.05787,0.6929 0.187922,5.505 0.187922,5.505 0.05787,0.3559 -0.02894,1.8163 0.34691,2.528 0.375844,0.7117 -0.578232,1.1796 -1.026408,1.1796 -0.896353,0 -2.223121,-0.5016 -1.153169,-1.1306 0.796805,-0.4684 0.638246,-0.6638 0.638246,-0.6638 -1.267612,0.035 -0.80053,-0.8082 -0.80053,-0.8082 0.375844,-0.5057 0.910676,-0.1311 0.838487,-1.9664 -0.113579,-2.8837 -0.462495,-4.1009 -0.67935,-5.0369 -0.216856,-0.9364 -1.098885,-4.6253 -1.561528,-5.8238 -0.4625,-1.1983 -1.416718,-1.7787 -1.590174,-2.0035 -0.173455,-0.2245 -0.08666,-0.056 -3.2091363,-0.3744 -3.122481,-0.3184 -4.553953,-4.7560996 -4.669685,-5.8235996 -0.115589,-1.0674 -0.563766,-2.8835 -1.893685,-3.2019 -1.329919,-0.3184 -1.17093,-1.0299 -2.067283,-0.9736 -0.89620898,0.056 -1.15646398,-0.1874 -1.15646398,-0.1874 l -0.144522,-0.2809 c -0.0719,-0.5056 0.246218,-0.8802 0.405207,-1.2173 z"
       id="path3384"
       inkscape:connector-curvature="0"
       style="fill:#9e5e09" />
  </g>
</svg>
